# xmcd
#
# Track frame offsets:
#	150
#	10196
#	27463
#	47007
#	58702
#	71663
#	87107
#	100458
#	112196
#	127928
#	146454
#	161463
#	177775
#
# Disc length: 2547 seconds
#
# Revision: 1
# Processed by: cddbd v1.5PL3 Copyright (c) Steve Scherf et al.
# Submitted via: audiograbber 1.80
#
DISCID=ac09f10d
DTITLE=Belinda Gail and Curly Musgrave - When Trails Meet
DYEAR=1900
DGENRE=
TTITLE0=Gallivantin' Galveston Gal
TTITLE1=High Sonoita
TTITLE2=Prarie Girl
TTITLE3=Yodel Blues
TTITLE4=Texas Moon
TTITLE5=Now That I Found You
TTITLE6=Ol' Nevada Moon
TTITLE7=Montana Lullaby
TTITLE8=Cowboy/Cowgirl Blues
TTITLE9=Eight Second Ride
TTITLE10=Place Where I Worship
TTITLE11=Wild Sierras
TTITLE12=Singing On The Trail
EXTD=
EXTT0=
EXTT1=
EXTT2=
EXTT3=
EXTT4=
EXTT5=
EXTT6=
EXTT7=
EXTT8=
EXTT9=
EXTT10=
EXTT11=
EXTT12=
PLAYORDER=
